<svg xmlns="http://www.w3.org/2000/svg" viewBox="0 0 65.89 64.2">
  <defs>
    <style>
      .white-fill {
        fill: #fff;
      }

      .green-fill {
        fill: #a6ce39;
      }

      .blue-fill {
        fill: #00bff3;
      }
    </style>
  </defs>
  <title>Bayer Logo</title>
  <g id="Layer_2" data-name="Layer 2">
    <g id="Layer_1-2" data-name="Layer 1">
      <g>
        <path class="white-fill" d="M37.09,10.41a2.64,2.64,0,0,1,.84,1.93A2.74,2.74,0,0,1,35.17,15H28.82V6.15h6.24a2.62,2.62,0,0,1,2.65,2.59,2.53,2.53,0,0,1-.62,1.67ZM31,13.13H34.9a.85.85,0,1,0,0-1.69H31v1.69Zm0-3.59h3.79a.74.74,0,1,0,0-1.48H31V9.54Z" transform="translate(0 0)"/>
        <path class="white-fill" d="M32.94,19l-1.6,3.23h3.2L32.94,19Zm5.61,6.61H36.22l-.73-1.48h-5.1l-.73,1.48H27.33l4.55-8.88H34l4.55,8.88Z" transform="translate(0 0)"/>
        <polygon class="white-fill" points="36.03 27.52 38.65 27.52 34.02 33.3 34.02 36.4 31.85 36.4 31.85 33.3 27.23 27.52 29.84 27.52 32.94 31.56 36.03 27.52 36.03 27.52"/>
        <polygon class="white-fill" points="48.12 27.52 48.12 29.42 42.04 29.42 42.04 30.9 47.9 30.9 47.9 32.8 42.04 32.8 42.04 34.49 48.12 34.49 48.12 36.4 39.87 36.4 39.87 27.52 48.12 27.52 48.12 27.52"/>
        <path class="white-fill" d="M56.34,29.42H53.19v1.69h3.15a.85.85,0,1,0,0-1.69ZM54.82,33H53.19V36.4H51V27.52h5.55a2.74,2.74,0,0,1,.78,5.39L60,36.4H57.42L54.82,33Z" transform="translate(0 0)"/>
        <path class="white-fill" d="M22.63,29.79,21,33h3.2l-1.6-3.22Zm5.62,6.61H25.92l-.74-1.48h-5.1l-.73,1.48H17l4.56-8.88h2.11l4.56,8.88Z" transform="translate(0 0)"/>
        <path class="white-fill" d="M15,31.77a2.69,2.69,0,0,1,.83,1.94,2.73,2.73,0,0,1-2.76,2.69H6.7V27.52H13a2.62,2.62,0,0,1,2.65,2.59A2.58,2.58,0,0,1,15,31.77ZM8.87,34.5h3.91a.85.85,0,1,0,0-1.69H8.87V34.5Zm0-3.6h3.8a.74.74,0,1,0,0-1.48H8.87V30.9Z" transform="translate(0 0)"/>
        <polygon class="white-fill" points="37.06 38.3 37.06 40.2 30.99 40.2 30.99 41.68 36.85 41.68 36.85 43.58 30.99 43.58 30.99 45.27 37.06 45.27 37.06 47.18 28.82 47.18 28.82 38.3 37.06 38.3 37.06 38.3"/>
        <path class="white-fill" d="M28.82,58.17V49.29h6.09A2.79,2.79,0,0,1,37.71,52,2.75,2.75,0,0,1,36,54.59l2.74,3.58h-2.6l-2.61-3.38H31v3.38ZM35.54,52a.85.85,0,0,0-.86-.84H31v1.69h3.69a.86.86,0,0,0,.86-.85Z" transform="translate(0 0)"/>
        <path class="green-fill" d="M65.82,30.11C64.77,13.31,50.45,0,32.94,0S1.12,13.31.06,30.11c.05.68.11,1.34.19,2a31.39,31.39,0,0,0,6.17,15A33.16,33.16,0,0,0,32.94,60.22c-15.22,0-27.73-11.55-28.79-26.13,0-.66-.07-1.32-.07-2s0-1.33.07-2C5.21,15.53,17.72,4,32.94,4A33.18,33.18,0,0,1,59.47,17a31.58,31.58,0,0,1,6.17,15.08c.08.65.14,1.31.18,2,.05-.66.07-1.32.07-2s0-1.33-.07-2" transform="translate(0 0)"/>
        <path class="blue-fill" d="M.06,34.09C1.12,50.89,15.44,64.2,32.94,64.2S64.77,50.89,65.82,34.09c0-.67-.1-1.34-.18-2A31.53,31.53,0,0,0,59.47,17,33.2,33.2,0,0,0,32.94,4C48.17,4,60.68,15.53,61.73,30.11c.05.66.08,1.32.08,2s0,1.33-.08,2c-1,14.58-13.56,26.13-28.79,26.13A33.18,33.18,0,0,1,6.42,47.16,31.54,31.54,0,0,1,.25,32.09c-.08-.66-.14-1.31-.19-2,0,.66-.06,1.32-.06,2s0,1.33.06,2" transform="translate(0 0)"/>
      </g>
    </g>
  </g>
</svg>
